<?xml version="1.0" encoding="utf-8"?>
<!-- Generator: Adobe Illustrator 18.1.1, SVG Export Plug-In . SVG Version: 6.00 Build 0)  -->
<svg version="1.1" id="Layer_1" xmlns="http://www.w3.org/2000/svg" xmlns:xlink="http://www.w3.org/1999/xlink" x="0px" y="0px"
	 viewBox="15 -15 90 90" enable-background="new 15 -15 90 90" xml:space="preserve">
<g id="XMLID_1_">
	<g>
		<path fill="#FEE3A7" d="M80.1,35.6v14.7l0,0.5c-0.1,4.7-2.5,8.9-6.6,11.2l-11.7,6.8V47.6l13.5-7.8C77.2,38.7,78.8,37.3,80.1,35.6z
			"/>
		<path fill="#FEE3A7" d="M58.2,47.6v21.2L46.5,62c-4-2.3-6.5-6.5-6.6-11.2l0-15.1c1.3,1.6,2.9,3,4.7,4.1L58.2,47.6z"/>
		<path fill="#FEE3A7" d="M58.2,29.9l0,13.5l-11.7-6.8c-4-2.3-6.5-6.5-6.6-11.2l0-0.3v-1.9V11.7c4.1,2.4,11.5,6.7,11.7,6.8
			C55.6,20.9,58.1,25.2,58.2,29.9z"/>
		<path fill="#FEE3A7" d="M80.1,11.7v13.1l0,0.5c-0.1,4.7-2.5,8.9-6.6,11.2l-11.7,6.8v-13l0-0.5c0-4.7,2.5-9,6.6-11.3
			C68.6,18.5,76,14.1,80.1,11.7z"/>
		<path fill="#474747" d="M83.8-8.6v34c0,0,0,0,0,0l0,25.8c-0.2,5.7-3.4,11-8.4,13.9L60,74l-15.4-8.9c-5-2.9-8.1-8.2-8.4-13.9l0,0
			l0-0.5V-8.6c0-1,0.8-1.8,1.8-1.8c1,0,1.8,0.8,1.8,1.8V7.5c5.4,3.1,13.5,7.8,13.6,7.9c1.9,1.1,3.4,2.5,4.7,4.1v-31.7
			c0-1,0.8-1.8,1.8-1.8s1.8,0.8,1.8,1.8v31.7c1.3-1.6,2.9-3,4.8-4.1c0,0,10.4-6,13.5-7.9V-8.6c0-1,0.8-1.8,1.8-1.8
			C83-10.4,83.8-9.6,83.8-8.6z M80.1,50.3V35.6c-1.3,1.6-2.9,3-4.8,4.1l-13.5,7.8v21.2L73.5,62c4-2.3,6.5-6.5,6.6-11.2L80.1,50.3z
			 M80.1,24.9V11.7c-4.2,2.4-11.6,6.7-11.7,6.8c-4,2.3-6.5,6.7-6.6,11.3l0,0.5v13l11.7-6.8c4-2.3,6.5-6.5,6.6-11.2L80.1,24.9z
			 M58.2,68.8V47.6l-13.5-7.8c-1.9-1.1-3.5-2.5-4.7-4.1l0,15.1c0.1,4.7,2.5,8.9,6.6,11.2L58.2,68.8z M58.2,43.3l0-13.5
			c0-4.7-2.5-9-6.6-11.3c-0.2-0.1-7.6-4.4-11.7-6.8v11.4V25l0,0.3c0.1,4.7,2.5,8.9,6.6,11.2L58.2,43.3z"/>
		<path fill="#474747" d="M72.8-4.9V6c0,1-0.8,1.8-1.8,1.8S69.2,7,69.2,6V-4.9c0-1,0.8-1.8,1.8-1.8C72-6.7,72.8-5.9,72.8-4.9z"/>
		<path fill="#474747" d="M50.9-4.9V6c0,1-0.8,1.8-1.8,1.8c-1,0-1.8-0.8-1.8-1.8V-4.9c0-1,0.8-1.8,1.8-1.8C50-6.7,50.9-5.9,50.9-4.9
			z"/>
	</g>
	<g>
	</g>
</g>
</svg>
