<?xml version="1.0" encoding="utf-8"?>
<!-- Generator: Adobe Illustrator 18.1.1, SVG Export Plug-In . SVG Version: 6.00 Build 0)  -->
<svg version="1.1" id="Layer_1" xmlns="http://www.w3.org/2000/svg" xmlns:xlink="http://www.w3.org/1999/xlink" x="0px" y="0px"
	 viewBox="20 -20 100 100" enable-background="new 20 -20 100 100" xml:space="preserve">
<ellipse fill="#3DC380" cx="85.4" cy="-4.6" rx="3.4" ry="2.8"/>
<ellipse fill="#3DC380" cx="86.6" cy="12.4" rx="4.6" ry="3.9"/>
<g>
	<path fill="#474747" d="M84.8,15.4c-0.6-0.6-1-1.3-1-2.3c0-1.8,1.4-3.2,3.2-3.2c1.8,0,3.2,1.4,3.2,3.2c0,0.8-0.4,1.7-1,2.3h3
		c0.2-0.7,0.5-1.4,0.5-2.3c0-3.2-2.6-5.9-5.9-5.9s-5.9,2.6-5.9,5.9c0,0.8,0.1,1.6,0.5,2.3H84.8z"/>
</g>
<g>
	<path fill="#474747" d="M85.1,0.3c-2.6,0-4.8-2.2-4.8-4.8s2.2-4.8,4.8-4.8s4.8,2.2,4.8,4.8S87.8,0.3,85.1,0.3z M85.1-6.6
		c-1.2,0-2.2,1-2.2,2.2s1,2.2,2.2,2.2c1.2,0,2.2-1,2.2-2.2S86.3-6.6,85.1-6.6z"/>
</g>
<polygon fill="#D7D9D8" points="23.2,18.2 25.4,15.4 36.6,15.4 76.6,16.4 113.6,15.4 116.8,16.8 116.8,19.4 109.6,20.6 109.1,59.5 
	105.3,65.5 101.2,67.5 37.4,67.5 32.3,63.8 30.8,52 30.3,22.6 30.9,21.6 26.4,21.4 23.2,20.5 "/>
<g>
	<g>
		<path fill="#474747" d="M63.4,17.6L63.4,17.6L63.4,17.6C63.5,17.6,63.4,17.6,63.4,17.6z"/>
		<path fill="#474747" d="M51.4,17.6h1.4c-0.1-0.4-0.2-0.8-0.4-1.2C52.2,16.8,51.9,17.2,51.4,17.6z"/>
		<path fill="#474747" d="M114.5,14.1H73.2c-0.2,1.4-1,2.6-2,3.6h43.2c0.5,0,0.8,0.4,0.8,0.8c0,0.5-0.4,0.6-0.7,0.6h-7.3v39.4
			c0,3.9-3.2,7.3-7.3,7.3H40.3c-3.9,0-7.3-3.2-7.3-7.3V19.1h-7.3c-0.5,0-0.8-0.4-0.8-0.8s0.4-0.8,0.8-0.8h14.7c-1-1-1.8-2.2-2.2-3.6
			H25.7c-2.4,0-4.3,1.9-4.3,4.3s1.9,4.5,4.3,4.5h3.7v35.8c0,6,4.9,10.8,10.8,10.8h59.7c6,0,10.8-4.9,10.8-10.8V22.7h3.7
			c2.4,0,4.3-1.9,4.3-4.3S116.8,14.1,114.5,14.1z"/>
	</g>
	<g>
		<path fill="#474747" d="M74.4,3l0.4-3.5c0.1-1.4-0.8-2.6-2.3-2.9c-1.4-0.2-2.6,0.8-2.9,2.3l-0.2,3.5"/>
		<path fill="#474747" d="M75.7,3.1l-2.5-0.4l0.4-3.5c0-0.4,0-0.7-0.2-1s-0.5-0.5-0.8-0.5s-0.7,0-1,0.2S71-1.5,71-1.1l-0.4,3.5
			L68.1,2l0.4-3.5c0.1-1.1,0.6-1.9,1.4-2.5c0.8-0.6,1.8-1,2.9-0.8c1.1,0.1,1.9,0.6,2.5,1.4c0.6,0.8,1,1.8,0.8,2.9L75.7,3.1z"/>
	</g>
</g>
<g>
	<path fill="#474747" d="M47.8-1.1L33.7-2.8c-1.1-0.1-1.9,0.6-2,1.6c-0.1,1,0.6,1.9,1.6,1.9l13.4,1.7C46.6,1,47.1-0.2,47.8-1.1z"/>
	<path fill="#474747" d="M110.4,6.3L65.5,0.9c1.1,1.1,1.8,2.4,2.2,3.8l42.4,5c0.1,0,0.1,0,0.2,0c0.8,0,1.7-0.7,1.8-1.6
		C112.1,7.4,111.3,6.4,110.4,6.3z"/>
</g>
<path fill="#3DC380" d="M72.8,13v1.6c0,2.5-2.1,4.6-4.6,4.6c-1.8,0-3.4-1-4.1-2.6c-0.5,0.2-1,0.4-1.6,0.6c-0.2,0.7-0.5,1.3-1,1.8
	c-0.7,0.7-1.7,1.2-2.8,1.2h-1.9c-1.8,0-3.4-1.2-3.8-2.9c0,0,0,0,0,0C51.4,19,49.2,20,46.8,20c-4.8,0-8.6-3.9-8.6-8.6
	c0-2.4,1-4.5,2.5-6.1c1.6-1.6,3.7-2.5,6.1-2.5c0.1,0,0.2,0,0.3,0v-1c0-2.7,2.2-5,5-5h1.2c2.1,0,4,1.4,4.7,3.2c0,0,0,0.1,0,0.1
	c0,0,0.1,0,0.1,0c0.7-0.2,1.5-0.3,2.3-0.3c2.3,0,4.4,0.9,5.9,2.4c1.5,1.5,2.4,3.6,2.4,5.9v0.4c1,0.1,2,0.6,2.7,1.3
	C72.3,10.6,72.8,11.8,72.8,13z"/>
<path fill="#3DC380" d="M42.2,27.5L42.2,27.5c-2.4,0-4.3-1.9-4.3-4.3v0c0-2.4,1.9-4.3,4.3-4.3h0c2.4,0,4.3,1.9,4.3,4.3v0
	C46.5,25.6,44.6,27.5,42.2,27.5z"/>
<g>
	<path fill="#474747" d="M69,6.2c-0.2-5-4.7-9.1-9.8-8.7c-1.6-1.7-3.7-2.8-6-2.8c-4.3,0-7.8,3.4-7.9,7.7c-4.9,0.4-8.7,4.4-8.7,9.3
		c0,2.8,1.2,5.3,3.1,6.9c0.7-0.4,1.6-0.6,2.4-0.6c2,0,3.8,1.2,4.7,3c1.9-0.2,3.7-1,5.1-2.2c1.2,2.3,3.5,3.7,6.1,3.7
		c2.4,0,4.5-1.2,5.7-3.1c1.1,0.6,2.3,0.8,3.5,0.8c3.9,0,7.2-3.2,7.2-7.2C74.5,9.8,72.2,6.9,69,6.2z M67.3,17.8
		c-1.2,0-2.3-0.5-3.1-1.2l-1.4-1.3l-0.6,1.8c-0.6,1.8-2.3,2.9-4.1,2.9c-2.2,0-4.1-1.7-4.3-3.8l-0.2-2l1.4-1.4l0.7-1l-3.1-3.6
		l-0.1,1.6c0,0,0.4,1.7,0,3.2c-0.2,1.3-1.1,2.6-1.1,2.6c-1.3,1.8-3.4,2.9-5.5,2.9c-3.7,0-6.8-3-6.8-6.8s3-6.8,6.8-6.8
		c0.2,0,0.4,0,0.6,0l1.7,0.1l-0.2-1.3c0-0.2-0.1-0.5-0.1-0.8c0-3,2.4-5.4,5.4-5.4c1.7,0,3.4,0.8,4.3,2.3L58,0.2l0.8-0.1
		c4.1-0.6,7.7,2.5,7.7,6.5c0,0.2,0,0.4,0,0.6l-0.1,1.3l1.3,0.1c2.4,0.1,4.3,2.2,4.3,4.5C72,15.6,69.8,17.8,67.3,17.8z"/>
	<path fill="#474747" d="M42.2,29.6c-3.6,0-6.5-2.9-6.5-6.5s2.9-6.5,6.5-6.5c3.6,0,6.5,2.9,6.5,6.5S45.8,29.6,42.2,29.6z M42.2,19.4
		c-2.2,0-3.8,1.8-3.8,3.8c0,2.2,1.8,3.8,3.8,3.8c2,0,3.8-1.8,3.8-3.8S44.3,19.4,42.2,19.4z"/>
</g>
<path fill="#3DC380" d="M58.1,0.1C58.1,0.1,58.1,0.1,58.1,0.1C58,0.1,58,0,58,0C58,0,58.1,0,58.1,0.1z"/>
<path fill="#474747" d="M97.7,55L97.7,55c-0.8,0-1.5-0.7-1.5-1.5V23c0-0.8,0.7-1.5,1.5-1.5h0c0.8,0,1.5,0.7,1.5,1.5v30.5
	C99.2,54.3,98.5,55,97.7,55z"/>
</svg>
