<?xml version="1.0" encoding="utf-8"?>
<!-- Generator: Adobe Illustrator 18.1.1, SVG Export Plug-In . SVG Version: 6.00 Build 0)  -->
<svg version="1.1" id="Layer_1" xmlns="http://www.w3.org/2000/svg" xmlns:xlink="http://www.w3.org/1999/xlink" x="0px" y="0px"
	 viewBox="20 -20 100 100" enable-background="new 20 -20 100 100" xml:space="preserve">
<path fill="#DEBD74" d="M38.6-3.4h17.9L66.8,8.7l0.8,55.8c0,0-0.5,5.6-6.2,6.7c-5.8,1.1-25.5,0-25.5,0s-7.1,0.2-8.1-6.7
	c-1-6.8,0-54.6,0-54.6L38.6-3.4z"/>
<path fill="#474747" d="M47.3,60.4c3.8,0,7-3.1,7-7c0-0.6-0.4-1-1-1s-1,0.4-1,1c0,2.7-2.2,5-5,5s-5-2.2-5-5c0-0.6-0.4-1-1-1
	c-0.6,0-1,0.4-1,1C40.3,57.3,43.5,60.4,47.3,60.4z"/>
<path fill="#474747" d="M35.3,48.4h4c0.6,0,1-0.4,1-1s-0.4-1-1-1h-4c-0.6,0-1,0.4-1,1S34.8,48.4,35.3,48.4z"/>
<path fill="#474747" d="M55.3,48.4h4c0.6,0,1-0.4,1-1s-0.4-1-1-1h-4c-0.6,0-1,0.4-1,1S54.7,48.4,55.3,48.4z"/>
<polygon fill="#D7D9D8" points="39.1,-8.2 55,-8.2 56.9,0 37.3,0.5 "/>
<path fill="#515151" d="M38.8-12.1h17c0,0,3.6,2.3-0.8,3.9s-15.9,0-15.9,0S35.9-11.5,38.8-12.1z"/>
<polygon fill="#F9FAFB" points="37.3,-0.2 56.9,-0.8 66.4,10 28.1,10 "/>
<polygon fill="#F9FAFB" points="37.3,-1.2 56.9,-1.8 66.4,9 28.1,9 "/>
<path opacity="0.17" fill="#F9FAFB" d="M30,4.6c0,0-3.6,4.1-3.6,7.7s0.1,52.8,0.1,52.8s1.5,6.4,7.9,7.3V1.5L30,4.6z"/>
<polygon fill="#F9FAFB" points="37.3,-2 56.9,-2.6 66.4,8.2 28.1,8.2 "/>
<path fill="#474747" d="M35.3,72.3h23.9c4.9,0,9-4,9-9l0,0c0,0,0,0,0,0V13.5v0c0-5.4-3.2-8.6-6.3-11.7c-2.8-2.7-5.3-5.4-5.6-9.5
	c1.1-0.4,1.9-1.5,1.9-2.8c0-1.6-1.3-3-3-3h-16c-1.6,0-3,1.3-3,3c0,1.3,0.8,2.4,1.9,2.8c-0.3,4.1-2.9,6.7-5.6,9.5
	c-3.1,3.1-6.3,6.3-6.3,11.7v0v49.9c0,0,0,0,0,0l0,0C26.4,68.3,30.4,72.3,35.3,72.3z M39.3-11.4h16c0.5,0,1,0.4,1,1s-0.4,1-1,1h-16
	c-0.5,0-1-0.4-1-1S38.8-11.4,39.3-11.4z M34,3.3c2.9-2.9,5.8-5.9,6.2-10.7h14.1c0.4,4.8,3.3,7.8,6.2,10.7c2.9,2.9,5.7,5.7,5.7,10.3
	v49.9c0,0,0,0,0,0l0,0c0,3.8-3.1,7-7,7H35.3c-3.8,0-7-3.1-7-7l0,0c0,0,0,0,0,0V13.5C28.4,8.9,31.1,6.2,34,3.3z"/>
<circle fill="#E9D2A4" cx="60.3" cy="13.9" r="1.4"/>
<circle fill="#E9D2A4" cx="60.3" cy="39.4" r="1.4"/>
<path opacity="0.17" fill="#474747" d="M64.6,4.6c0,0,3.6,4.1,3.6,7.7s-0.1,52.8-0.1,52.8s-1.5,6.4-7.8,7.3V1.5L64.6,4.6z"/>
<circle fill="#E9D2A4" cx="49.4" cy="16.3" r="1.4"/>
<circle fill="#E9D2A4" cx="40.3" cy="26.6" r="1.4"/>
<circle fill="#E9D2A4" cx="45.8" cy="23.3" r="1.4"/>
<circle fill="#E9D2A4" cx="44.4" cy="38" r="1.4"/>
<circle fill="#E9D2A4" cx="50.8" cy="36.6" r="1.4"/>
<circle fill="#E9D2A4" cx="50.8" cy="27.3" r="1.4"/>
<circle fill="#E9D2A4" cx="40.8" cy="43.9" r="1.4"/>
<circle fill="#E9D2A4" cx="46.4" cy="48.8" r="1.4"/>
<circle fill="#E9D2A4" cx="53.6" cy="63.6" r="1.4"/>
<circle fill="#E9D2A4" cx="37.3" cy="64.1" r="1.4"/>
<circle fill="#E9D2A4" cx="43.6" cy="66.9" r="1.4"/>
<circle fill="#E9D2A4" cx="40.8" cy="12.5" r="1.4"/>
<circle fill="#E9D2A4" cx="33.8" cy="20.5" r="1.4"/>
<circle fill="#E9D2A4" cx="47.1" cy="42.5" r="1.4"/>
<path fill="#DEBD74" d="M63.8-3.7h19.2l11,13l0.8,59.8c0,0-0.5,6-6.7,7.2c-6.2,1.2-27.3,0-27.3,0s-7.6,0.2-8.7-7.2s0-58.5,0-58.5
	L63.8-3.7z"/>
<path fill="#474747" d="M73.1,64.7c4.1,0,7.5-3.4,7.5-7.5c0-0.6-0.5-1.1-1.1-1.1c-0.6,0-1.1,0.5-1.1,1.1c0,2.9-2.4,5.3-5.3,5.3
	s-5.3-2.4-5.3-5.3c0-0.6-0.5-1.1-1.1-1.1c-0.6,0-1.1,0.5-1.1,1.1C65.6,61.3,69,64.7,73.1,64.7z"/>
<path fill="#474747" d="M60.3,51.9h4.3c0.6,0,1.1-0.5,1.1-1.1s-0.5-1.1-1.1-1.1h-4.3c-0.6,0-1.1,0.5-1.1,1.1S59.7,51.9,60.3,51.9z"
	/>
<path fill="#474747" d="M81.6,51.9h4.3c0.6,0,1.1-0.5,1.1-1.1s-0.5-1.1-1.1-1.1h-4.3c-0.6,0-1.1,0.5-1.1,1.1S81,51.9,81.6,51.9z"/>
<polygon fill="#D7D9D8" points="64.3,-8.8 81.3,-8.8 83.3,0 62.4,0.5 "/>
<path fill="#515151" d="M64-13h18.2c0,0,3.8,2.5-0.8,4.2c-4.7,1.7-17,0-17,0S60.8-12.3,64-13z"/>
<polygon fill="#F9FAFB" points="62.4,-0.3 83.3,-0.9 93.5,10.7 52.5,10.7 "/>
<polygon fill="#F9FAFB" points="62.4,-1.3 83.3,-2 93.5,9.6 52.5,9.6 "/>
<path opacity="0.17" fill="#F9FAFB" d="M54.6,4.9c0,0-3.8,4.4-3.9,8.3c-0.1,3.8,0.1,56.5,0.1,56.5s1.6,6.8,8.4,7.8V1.6L54.6,4.9z"/>
<polygon fill="#F9FAFB" points="62.4,-2.2 83.3,-2.8 93.5,8.8 52.5,8.8 "/>
<path fill="#474747" d="M60.3,77.5h25.6c5.3,0,9.6-4.3,9.6-9.6l0,0c0,0,0,0,0,0V14.5v0c0-5.8-3.4-9.2-6.7-12.5
	c-2.9-2.9-5.7-5.8-6-10.1c1.2-0.5,2.1-1.6,2.1-3c0-1.8-1.4-3.2-3.2-3.2H64.5c-1.8,0-3.2,1.4-3.2,3.2c0,1.4,0.9,2.5,2.1,3
	C63.1-3.8,60.3-1,57.4,2c-3.3,3.3-6.7,6.7-6.7,12.5v0v53.4c0,0,0,0,0,0l0,0C50.6,73.2,55,77.5,60.3,77.5z M64.5-12.2h17.1
	c0.6,0,1.1,0.5,1.1,1.1s-0.5,1.1-1.1,1.1H64.5c-0.6,0-1.1-0.5-1.1-1.1S63.9-12.2,64.5-12.2z M58.9,3.5C62,0.4,65.1-2.8,65.5-8h15.1
	c0.4,5.1,3.6,8.3,6.6,11.4c3.1,3.1,6.1,6.1,6.1,11v53.4c0,0,0,0,0,0l0,0c0,4.1-3.4,7.5-7.5,7.5H60.3c-4.1,0-7.5-3.4-7.5-7.5l0,0
	c0,0,0,0,0,0V14.5C52.8,9.6,55.7,6.6,58.9,3.5z"/>
<polygon fill="#474747" points="96.2,-0.5 107.1,-0.5 107.1,-3.6 101.7,-3.6 107.1,-8.3 107.1,-11.4 96.2,-11.4 96.2,-8.3 
	101.5,-8.3 96.2,-3.7 "/>
<circle fill="#E9D2A4" cx="87" cy="14.8" r="1.5"/>
<circle fill="#E9D2A4" cx="87" cy="42.1" r="1.5"/>
<polygon fill="#474747" points="109.8,-11.8 113.8,-11.8 109.8,-8.4 109.8,-6 117.9,-6 117.9,-8.3 113.9,-8.3 117.9,-11.8 
	118,-14.1 109.8,-14.1 "/>
<path opacity="0.17" fill="#474747" d="M91.6,4.9c0,0,3.8,4.4,3.9,8.3c0.1,3.8-0.1,56.5-0.1,56.5s-1.6,6.8-8.4,7.8V1.6L91.6,4.9z"/>
<circle fill="#E9D2A4" cx="75.4" cy="17.4" r="1.5"/>
<circle fill="#E9D2A4" cx="65.6" cy="28.5" r="1.5"/>
<circle fill="#E9D2A4" cx="71.5" cy="25" r="1.5"/>
<circle fill="#E9D2A4" cx="70" cy="40.6" r="1.5"/>
<circle fill="#E9D2A4" cx="76.9" cy="39.1" r="1.5"/>
<circle fill="#E9D2A4" cx="76.9" cy="29.2" r="1.5"/>
<circle fill="#E9D2A4" cx="66.1" cy="47" r="1.5"/>
<circle fill="#E9D2A4" cx="72.1" cy="52.3" r="1.5"/>
<circle fill="#E9D2A4" cx="79.9" cy="68.1" r="1.5"/>
<circle fill="#E9D2A4" cx="62.4" cy="68.7" r="1.5"/>
<circle fill="#E9D2A4" cx="69.1" cy="71.7" r="1.5"/>
<circle fill="#E9D2A4" cx="66.1" cy="13.3" r="1.5"/>
<circle fill="#E9D2A4" cx="58.6" cy="22" r="1.5"/>
<circle fill="#E9D2A4" cx="72.9" cy="45.5" r="1.5"/>
</svg>
