<?xml version="1.0" encoding="utf-8"?>
<!-- Generator: Adobe Illustrator 18.1.1, SVG Export Plug-In . SVG Version: 6.00 Build 0)  -->
<svg version="1.1" id="Your_Icon" xmlns="http://www.w3.org/2000/svg" xmlns:xlink="http://www.w3.org/1999/xlink" x="0px" y="0px"
	 viewBox="0 0 60 60" enable-background="new 0 0 60 60" xml:space="preserve">
<g>
	<path fill="#3DC380" d="M16.1,13.6c0,0,6.2-5.9,10.9-5.6s10.9,0,14.9,3.2s7.6,11.6,7.2,13.6s-2.3,13-3.8,13.9s-3.5,2.6-4.2,4.4
		s-1.2,5.6-2.1,5.6s-2.8-0.8-2.8-0.8l-5.9,9.1l-5.5-7.8l-4.2-0.8l-2.2-8.2l-4.1-1.2l-2.5-13.4l0.8-7.4L16.1,13.6z"/>
	<path fill="#474747" d="M51.1,26.7c-0.7,0-1.3-0.1-2-0.1c0.9,5.2-0.2,10.4-2.9,14.8c-0.8-0.2-1.6-0.6-2.3-0.9
		c-0.4,3.9-1.8,7.6-4.1,10.7c-1-0.4-1.9-0.9-2.9-1.5c-1.3,3.8-3.7,7.1-6.9,9.6c-3.1-2.5-5.5-5.8-6.9-9.6c-0.9,0.5-1.9,1.1-2.8,1.5
		c-2.3-3.1-3.8-6.8-4.1-10.7c-0.8,0.4-1.6,0.7-2.3,0.9c-2.7-4.3-3.8-9.5-2.9-14.8c-0.7,0.1-1.3,0.1-2,0.1c0-11.1,8.6-20.2,19.5-21
		V2.4c0-0.9,0.7-1.6,1.6-1.6s1.6,0.7,1.6,1.6v3.2C42.5,6.5,51.1,15.6,51.1,26.7z M44.7,37.3c1.6-3.5,1.9-7.5,1-11.3
		c-2.8-0.7-5.3-2-7.4-3.7c-0.8,1.3-1.7,2.5-2.7,3.5c0.1,0.5,0.3,1,0.5,1.6C37.5,31.7,40.7,35.2,44.7,37.3z M40.2,19.7
		c2.2,1.7,4.6,2.8,7.3,3.4C45.8,15,38.6,8.9,30,8.9S14.2,15,12.5,23.1c2.6-0.5,5.1-1.7,7.3-3.4l2.9-2.2l1.9,3.1
		c1.4,2.3,3.2,4.2,5.5,5.6c2.2-1.4,4.1-3.4,5.5-5.6l1.9-3.1L40.2,19.7z M38.6,46.9c1.4-2.6,2.1-5.4,2.1-8.2c-1.3-0.9-2.5-1.9-3.5-3
		c-0.7,2.5-1.9,4.8-3.5,6.8C35,44.2,36.7,45.7,38.6,46.9z M30,41.9c2.5-2.7,4.1-6.1,4.7-9.7c-0.7-1.1-1.3-2.3-1.7-3.7
		c-0.1-0.1-0.1-0.2-0.1-0.3c-0.9,0.7-1.8,1.3-2.8,1.8c-1-0.5-1.9-1.1-2.8-1.8c-0.1,0.1-0.1,0.2-0.1,0.3c-0.5,1.3-1.1,2.5-1.7,3.7
		C25.8,35.8,27.5,39.2,30,41.9z M30,54.8c2-2,3.4-4.6,4.1-7.3c-1-0.8-1.8-1.7-2.6-2.7c-0.5,0.5-1,0.9-1.6,1.3
		c-0.5-0.4-1.1-0.9-1.6-1.3c-0.8,1-1.7,1.9-2.6,2.7C26.6,50.3,28,52.7,30,54.8z M24,27.4c0.2-0.5,0.4-1,0.5-1.6
		c-1-1.1-1.9-2.3-2.7-3.5c-2.2,1.7-4.7,2.9-7.4,3.7c-0.9,3.8-0.6,7.7,1,11.3C19.3,35.2,22.4,31.7,24,27.4z M26.3,42.4
		c-1.6-2-2.8-4.3-3.5-6.8c-1.1,1.1-2.2,2.2-3.5,3c0,2.9,0.7,5.7,2.1,8.2C23.3,45.7,24.9,44.2,26.3,42.4z"/>
</g>
</svg>
