<?xml version="1.0" encoding="utf-8"?>
<!-- Generator: Adobe Illustrator 18.1.1, SVG Export Plug-In . SVG Version: 6.00 Build 0)  -->
<svg version="1.1" id="Layer_1" xmlns="http://www.w3.org/2000/svg" xmlns:xlink="http://www.w3.org/1999/xlink" x="0px" y="0px"
	 viewBox="0 0 60 60" enable-background="new 0 0 60 60" xml:space="preserve">
<rect x="2.9" y="17" fill="#F9FAFB" width="30.2" height="9.5"/>
<rect x="2.2" y="10" fill="#D7D9D8" width="31.6" height="7.6"/>
<polygon fill="#B3B2B1" points="58.3,60 24.9,60 25.5,56.1 58.3,56.1 "/>
<polygon fill="#DEBD74" points="30.6,59 6.5,59 3.6,26.5 33.1,26.5 "/>
<circle fill="#E9D2A4" cx="23.8" cy="45.2" r="1.1"/>
<circle fill="#E9D2A4" cx="29.1" cy="29.1" r="1.1"/>
<circle fill="#E9D2A4" cx="7.9" cy="29.6" r="1.1"/>
<circle fill="#E9D2A4" cx="28" cy="39.2" r="1.1"/>
<polygon opacity="0.24" fill="#474747" enable-background="new    " points="30.3,58.2 23.3,58.2 26.9,11.3 33.8,11.5 "/>
<circle fill="#E9D2A4" cx="13.6" cy="33.8" r="1.1"/>
<polygon fill="none" stroke="#474747" stroke-width="2" points="30.6,59 6.5,59 2.2,10.6 34.6,10.6 "/>
<circle fill="#E9D2A4" cx="10.7" cy="39.2" r="1.1"/>
<circle fill="#E9D2A4" cx="9.6" cy="47.4" r="1.1"/>
<circle fill="#E9D2A4" cx="15.3" cy="55" r="1.1"/>
<circle fill="#E9D2A4" cx="19.5" cy="51.2" r="1.1"/>
<circle fill="#E9D2A4" cx="21.4" cy="55" r="1.1"/>
<circle fill="#E9D2A4" cx="18.2" cy="29.8" r="1.1"/>
<circle fill="#E9D2A4" cx="23.8" cy="31.9" r="1.1"/>
<circle fill="#E9D2A4" cx="17.1" cy="44.5" r="1.1"/>
<circle fill="#E9D2A4" cx="19.2" cy="37.6" r="1.1"/>
<polygon opacity="0.25" fill="#F9FAFB" enable-background="new    " points="12.5,60 5.6,60 1.1,9.6 10.7,9.6 "/>
</svg>
