<?xml version="1.0" encoding="utf-8"?>
<!-- Generator: Adobe Illustrator 18.1.1, SVG Export Plug-In . SVG Version: 6.00 Build 0)  -->
<svg version="1.1" id="Layer_1" xmlns="http://www.w3.org/2000/svg" xmlns:xlink="http://www.w3.org/1999/xlink" x="0px" y="0px"
	 viewBox="-5 7 48 48" enable-background="new -5 7 48 48" xml:space="preserve">
<g>
	<polyline fill="#EBECEC" points="33.3,15 28,18.7 33.4,20.8 36.3,19.4 33.3,15 	"/>
	<path fill="#D7D9D8" d="M1.6,35.1h34.8c0,0-1,13.8-15.5,14.3C6.4,49.9,4.2,43,1.6,36"/>
	<polyline fill="#F2CB8D" points="18.6,23.1 24.4,17.4 35.7,21.7 22.1,28.7 18.6,23.1 	"/>
	<path fill="#F1F1F1" d="M31.5,12.9c-0.1,0-0.3,0.1-0.4,0.2l-5.6,4.8l2.5,0.9l5.3-3.7L32,13.1C31.8,13,31.7,12.9,31.5,12.9"/>
	<path fill="#F5DDB7" d="M25.5,17.8l-5.7,4.8c-0.4,0.3-0.4,0.9-0.2,1.3l0.3,0.4l8-5.6L25.5,17.8"/>
	<ellipse fill="#474747" cx="14.9" cy="29.5" rx="0.8" ry="0.7"/>
	<ellipse fill="#474747" cx="18.6" cy="31.6" rx="0.7" ry="0.7"/>
	<ellipse fill="#474747" cx="15.7" cy="32.6" rx="0.7" ry="0.7"/>
	<ellipse fill="#474747" cx="18.1" cy="28.7" rx="0.8" ry="0.7"/>
	<path fill="#474747" d="M19.2,50.6c10,0,18.2-6.9,18.2-15.5c0-0.5-0.4-0.9-0.9-0.9H1.9c-0.5,0-0.9,0.4-0.9,0.9
		C1,43.6,9.2,50.6,19.2,50.6z M35.5,36c-0.5,7.2-7.7,12.8-16.3,12.8c-8.7,0-15.8-5.7-16.3-12.8H35.5z"/>
	<path fill="#474747" d="M-2.1,36h42.6c0.5,0,0.9-0.4,0.9-0.9c0-0.5-0.4-0.9-0.9-0.9H-2.1c-0.5,0-0.9,0.4-0.9,0.9
		C-3,35.6-2.6,36-2.1,36z"/>
	<path fill="#474747" d="M27.9,53.3c0.2,0,0.5-0.1,0.7-0.3c0.4-0.3,0.4-0.9,0-1.2l-2.3-2.2c-0.2-0.2-0.4-0.3-0.7-0.3h-6.4
		c-0.5,0-0.9,0.4-0.9,0.9s0.4,0.9,0.9,0.9h6.1l2,1.9C27.5,53.2,27.7,53.3,27.9,53.3z"/>
	<path fill="#474747" d="M10.5,53.3c0.2,0,0.5-0.1,0.7-0.3l2-1.9h6c0.5,0,0.9-0.4,0.9-0.9s-0.4-0.9-0.9-0.9h-6.4
		c-0.2,0-0.5,0.1-0.7,0.3l-2.3,2.2c-0.4,0.3-0.4,0.9,0,1.2C10,53.2,10.3,53.3,10.5,53.3z"/>
	<path fill="#474747" d="M22.6,29c0.4,0,0.8-0.1,1.2-0.2l13.8-6c0.7-0.3,1.1-0.8,1.3-1.4c0.2-0.6,0.1-1.3-0.3-1.9l-5.1-7.3
		c-0.5-0.7-1.2-1-2-1c-0.6,0-1.2,0.2-1.6,0.6l-11.3,9.6c-1.1,0.9-1.3,2.5-0.5,3.6l2.1,2.9C20.7,28.6,21.6,29,22.6,29 M31.5,12.9
		c0.2,0,0.3,0.1,0.4,0.3l5.1,7.3c0.1,0.1,0.1,0.3,0.1,0.4s-0.2,0.2-0.3,0.3l-13.8,6c-0.4,0.2-1.1,0-1.4-0.4l-2.1-2.9
		c-0.3-0.4-0.2-1,0.2-1.3L31.1,13C31.2,12.9,31.4,12.9,31.5,12.9"/>
	<path fill="#E0E0E0" d="M23.3,29c-0.2,0-0.4,0.1-0.6,0.1c0,0,0,0,0,0c0,0,0,0,0.1,0C23,29,23.2,29,23.3,29 M19.9,27.5L19.9,27.5
		C19.9,27.5,19.9,27.5,19.9,27.5L19.9,27.5 M37.6,22.8L37.6,22.8C37.6,22.8,37.6,22.8,37.6,22.8 M38.4,22.3
		c-0.2,0.2-0.5,0.4-0.8,0.5C38,22.6,38.2,22.5,38.4,22.3 M38.9,20.1c0.1,0.3,0.1,0.5,0.1,0.8C39.1,20.7,39,20.4,38.9,20.1 M38,18.5
		l0.7,0.9c0,0,0,0,0,0C38.3,19,38,18.5,38,18.5"/>
	<path fill="#D0D0D0" d="M36.3,19.4l-2.9,1.4l2.3,0.9l1.1-0.5c0.2-0.1,0.3-0.2,0.3-0.3s0-0.3-0.1-0.4L36.3,19.4"/>
	<path fill="#D5B581" d="M33.4,20.8l-11.9,5.8l0.1,0.2c0.2,0.3,0.6,0.4,1,0.4c0.1,0,0.3,0,0.4-0.1l12.7-5.5l0,0L33.4,20.8"/>
	<path fill="#474747" d="M38,18.5l-1.7,0.8l0.8,1.1c0.1,0.1,0.1,0.3,0.1,0.4s-0.2,0.2-0.3,0.3l-1.1,0.5L23,27.2
		c-0.1,0.1-0.3,0.1-0.4,0.1c-0.4,0-0.8-0.2-1-0.4l-0.1-0.2l-1.4,0.7l-0.2,0.1l0,0c0.9,1.3,2,1.6,2.7,1.6c0,0,0,0,0,0
		c0.2,0,0.4,0,0.6-0.1c0,0,0,0,0,0s13.4-5.7,14.3-6.2l0,0l0,0l0,0c0.3-0.1,0.6-0.3,0.8-0.5c0.3-0.4,0.5-0.8,0.6-1.4c0,0,0,0,0,0
		c0-0.3,0-0.5-0.1-0.8c-0.1-0.2-0.2-0.4-0.3-0.6c0,0,0,0,0,0L38,18.5C38,18.5,38,18.5,38,18.5"/>
	<path fill="#474747" d="M31.1,37.7l0.2,0L31.1,37.7L31.1,37.7l0.2,0L31.1,37.7L31.1,37.7c0,0.3-0.1,1.4-0.9,2.7
		c-0.8,1.4-2.4,3.1-5.4,4.8l0.5,0.9c3.2-1.7,4.9-3.6,5.8-5.2c0.9-1.5,1-2.8,1-3.2l0-0.2L31.1,37.7L31.1,37.7z"/>
</g>
</svg>
