<?xml version="1.0" encoding="utf-8"?>
<!-- Generator: Adobe Illustrator 18.1.1, SVG Export Plug-In . SVG Version: 6.00 Build 0)  -->
<svg version="1.1" id="Layer_1" xmlns="http://www.w3.org/2000/svg" xmlns:xlink="http://www.w3.org/1999/xlink" x="0px" y="0px"
	 viewBox="20 -20 100 100" enable-background="new 20 -20 100 100" xml:space="preserve">
<path fill="#FEE3A7" d="M45-1.6c0,0,15.7-8.7,16.1-8.7c0.5,0,20.4,6.1,20.4,6.1l7.2,16L71.4,68.8L26.2,54.4L45-1.6z"/>
<polygon fill="#D7D9D8" points="88.7,53.1 97.1,49.6 104.4,52.4 111.5,66.8 111.5,68.2 94.9,76.2 86.8,61.4 "/>
<g>
	<path fill="#474747" d="M81.3-2.6l7.3,15.8L69.8,67.6L27.5,53L46.2-1.3L62-9.2L81.3-2.6 M83.4-5l-21.6-7.4l-18.1,9l-20,58.3
		l48,16.5l20-58.3L83.4-5L83.4-5z"/>
	<path fill="#474747" d="M67.8-1.6l-5.6-1.9c-0.3-0.1-0.4-0.4-0.3-0.7s0.4-0.4,0.7-0.3l5.6,1.9c0.3,0.1,0.4,0.4,0.3,0.7
		C68.4-1.7,68.1-1.5,67.8-1.6z"/>
	<path fill="#474747" d="M78.4,2l-5.6-1.9c-0.3-0.1-0.4-0.4-0.3-0.7c0.1-0.3,0.4-0.4,0.7-0.3L78.8,1c0.3,0.1,0.4,0.4,0.3,0.7
		C79,2,78.7,2.1,78.4,2z"/>
	<path fill="#474747" d="M32.2,52.3c-0.2-0.1-0.4-0.2-0.5-0.5c-0.2-0.5,0-1,0.4-1.2l28.7-14c0.5-0.2,1,0,1.2,0.4
		c0.2,0.5,0,1-0.4,1.2L33,52.3C32.7,52.4,32.5,52.4,32.2,52.3z"/>
	<path fill="#474747" d="M38.2,54.3c-0.2-0.1-0.4-0.2-0.5-0.5c-0.2-0.5,0-1,0.4-1.2l28.3-13.8c0.5-0.2,1,0,1.2,0.4
		c0.2,0.5,0,1-0.4,1.2L38.9,54.3C38.6,54.4,38.4,54.4,38.2,54.3z"/>
	<path fill="#474747" d="M44.1,56.4c-0.2-0.1-0.4-0.2-0.5-0.5c-0.2-0.5,0-1,0.4-1.2l27.4-13.4c0.5-0.2,1,0,1.2,0.4
		c0.2,0.5,0,1-0.4,1.2L44.8,56.3C44.5,56.4,44.3,56.5,44.1,56.4z"/>
	<path fill="#474747" d="M50,58.4c-0.2-0.1-0.4-0.2-0.5-0.5c-0.2-0.5,0-1,0.4-1.2l24.3-11.9c0.5-0.2,1,0,1.2,0.4
		c0.2,0.5,0,1-0.4,1.2L50.7,58.4C50.4,58.5,50.2,58.5,50,58.4z"/>
	<path fill="#474747" d="M32.2,47.4c-0.2-0.1-0.4-0.2-0.5-0.5c-0.2-0.5,0-1,0.4-1.2L55,34.5c0.5-0.2,1,0,1.2,0.4
		c0.2,0.5,0,1-0.4,1.2L32.9,47.4C32.7,47.5,32.4,47.5,32.2,47.4z"/>
	<path fill="#474747" d="M36.2,35.6c-0.2-0.1-0.4-0.2-0.5-0.5c-0.2-0.5,0-1,0.4-1.2l5.5-2.7c0.5-0.2,1,0,1.2,0.4s0,1-0.4,1.2
		l-5.5,2.7C36.7,35.7,36.5,35.7,36.2,35.6z"/>
	<path fill="#474747" d="M55.9,60.4c-0.2-0.1-0.4-0.2-0.5-0.5c-0.2-0.5,0-1,0.4-1.2l16.3-8c0.5-0.2,1,0,1.2,0.4c0.2,0.5,0,1-0.4,1.2
		l-16.3,8C56.4,60.5,56.1,60.5,55.9,60.4z"/>
	<path fill="#474747" d="M61.8,62.5c-0.2-0.1-0.4-0.2-0.5-0.5c-0.2-0.5,0-1,0.4-1.2l8.4-4.1c0.5-0.2,1,0,1.2,0.4
		c0.2,0.5,0,1-0.4,1.2l-8.4,4.1C62.3,62.5,62,62.5,61.8,62.5z"/>
	<path fill="#474747" d="M67.7,64.5c-0.2-0.1-0.4-0.2-0.5-0.5c-0.2-0.5,0-1,0.4-1.2l0.5-0.2c0.5-0.2,1,0,1.2,0.4
		c0.2,0.5,0,1-0.4,1.2l-0.5,0.2C68.2,64.6,67.9,64.6,67.7,64.5z"/>
	<path fill="#474747" d="M34.2,41.5c-0.2-0.1-0.4-0.2-0.5-0.5c-0.2-0.5,0-1,0.4-1.2l14.5-7.1c0.5-0.2,1,0,1.2,0.4
		c0.2,0.5,0,1-0.4,1.2l-14.5,7.1C34.7,41.6,34.4,41.6,34.2,41.5z"/>
	<path fill="#474747" d="M93.6,55c-0.3-0.1-0.6-0.4-0.8-0.7c-5.7-10.4-0.2-20,4.7-28.4c4.2-7.4,8.2-14.4,5.2-21.3
		c-3.8-8.8-8.7-14-14.6-15.4c-7.8-1.9-14.9,3.7-14.9,3.8c-0.6,0.5-1.6,0.4-2.1-0.2c-0.5-0.6-0.4-1.6,0.2-2.1
		c0.3-0.3,8.2-6.6,17.5-4.4c6.8,1.6,12.4,7.4,16.6,17.1c3.6,8.3-1,16.3-5.4,24c-4.9,8.5-9.5,16.6-4.6,25.5c0.4,0.7,0.1,1.6-0.6,2
		C94.4,55.1,94,55.1,93.6,55z"/>
	<path fill="#474747" d="M97.5,50.7l6.1,2.8l6.8,13.9l-15.5,7.6L88.1,61l1.5-6.5L97.5,50.7 M97.5,47.4l-10.4,5.1L85,61.3l8.6,17.5
		l20.8-10.2l-8.6-17.5L97.5,47.4L97.5,47.4z"/>
</g>
</svg>
