<?xml version="1.0" encoding="utf-8"?>
<!-- Generator: Adobe Illustrator 18.1.1, SVG Export Plug-In . SVG Version: 6.00 Build 0)  -->
<svg version="1.1" id="Layer_1" xmlns="http://www.w3.org/2000/svg" xmlns:xlink="http://www.w3.org/1999/xlink" x="0px" y="0px"
	 viewBox="20 0.4 99.9 59.6" enable-background="new 20 0.4 99.9 59.6" xml:space="preserve">
<g id="Your_Icon">
</g>
<path fill="#474747" d="M115.2,39C110.9,36,92.6,25.3,76.9,4.7c-1.3-1.7-2.6-3.7-5.4-3.7c0,0,0,0,0,0v0c0,0,0,0-0.1,0h0
	c-3,0.1-4.6,2.3-6.4,4.3c-14.1,17-34.3,30.6-39.7,33c-2.4,1-4.1,2.9-4.1,5.2c0.2,4,4,7,10.1,9.9c6.7,3,22.7,5.8,40.3,5.8
	c8.5,0,17.4-0.7,25.6-2.4c16-3.5,21.4-7,21.8-12.1C118.8,42.2,116.9,40.3,115.2,39z"/>
<path fill="#FEE3A7" d="M112.1,48.6c-1.6,0.9-7.1,2.8-7.1,2.8c0-0.4-11.3,2.4-11.4,2.8C86.4,55.4,78.8,56,71.4,56
	c-7,0-13.9-0.5-19.9-1.2c0.3-0.4-4.3-0.8-4.2-0.6c-1.3-0.2-2.4-0.4-3.6-0.6c0-0.1-9.4-2.3-11.2-3.1c-5.7-2.5-8.3-5.7-8.1-6.8
	c0-0.6,0.3-1.3,2.1-2.1c2.4-1.1,13-7.6,12.5-7.8c5.1-3.8,13-10.2,18.6-15.6c0,0.1,2.8-2.8,2.8-2.8c0,1.6,0,0,0,0
	c2.4-2.5,4.8-5.1,7.1-7.8c1.8-2.2,3-3.2,3.9-3.2h0.1l0,0c1,0,1.1,0.4,2.7,2.4c16.1,21,35,32.1,39,35c1.4,1,2.3,2.3,2.3,3.1
	C115.5,45.6,115,46.9,112.1,48.6z"/>
<path d="M-5.8,14.5"/>
<path fill="#FEE3A7" d="M102.1,48.1"/>
<path fill="none" stroke="#474747" stroke-width="2" stroke-miterlimit="10" d="M66.3,16.9c-0.1,7-19.2,24.9-26.6,26.6"/>
</svg>
